<mxfile host="app.diagrams.net" modified="2020-08-30T20:50:19.328Z" agent="5.0 (Windows)" etag="MyGlpBwyqBKj-bKvttRm" version="13.6.5" type="github">
  <diagram id="aUGMP3sqpN3aYnWWDhq3" name="Page-1">
    <mxGraphModel dx="1422" dy="791" grid="1" gridSize="10" guides="1" tooltips="1" connect="1" arrows="1" fold="1" page="1" pageScale="1" pageWidth="827" pageHeight="1169" math="0" shadow="0">
      <root>
        <mxCell id="0" />
        <mxCell id="1" parent="0" />
        <mxCell id="-4jPANf81GSxFtbV3iYV-1" value="DB&#39;s" style="shape=cylinder2;whiteSpace=wrap;html=1;boundedLbl=1;backgroundOutline=1;size=15;" vertex="1" parent="1">
          <mxGeometry x="335" y="600" width="50" height="80" as="geometry" />
        </mxCell>
        <mxCell id="-4jPANf81GSxFtbV3iYV-5" value="&lt;div&gt;SpringJPA&lt;/div&gt;&lt;div&gt;Entities&lt;br&gt;&lt;/div&gt;" style="whiteSpace=wrap;html=1;aspect=fixed;" vertex="1" parent="1">
          <mxGeometry x="240" y="360" width="80" height="80" as="geometry" />
        </mxCell>
        <mxCell id="-4jPANf81GSxFtbV3iYV-6" value="Repositories" style="whiteSpace=wrap;html=1;aspect=fixed;" vertex="1" parent="1">
          <mxGeometry x="400" y="360" width="80" height="80" as="geometry" />
        </mxCell>
        <mxCell id="-4jPANf81GSxFtbV3iYV-12" value="" style="endArrow=classic;startArrow=classic;html=1;entryX=0.5;entryY=1;entryDx=0;entryDy=0;" edge="1" parent="1" target="-4jPANf81GSxFtbV3iYV-6">
          <mxGeometry width="50" height="50" relative="1" as="geometry">
            <mxPoint x="360" y="602" as="sourcePoint" />
            <mxPoint x="390" y="540" as="targetPoint" />
          </mxGeometry>
        </mxCell>
        <mxCell id="-4jPANf81GSxFtbV3iYV-13" value="" style="endArrow=classic;startArrow=classic;html=1;exitX=1;exitY=0.5;exitDx=0;exitDy=0;entryX=0;entryY=0.5;entryDx=0;entryDy=0;" edge="1" parent="1" source="-4jPANf81GSxFtbV3iYV-5" target="-4jPANf81GSxFtbV3iYV-6">
          <mxGeometry width="50" height="50" relative="1" as="geometry">
            <mxPoint x="390" y="430" as="sourcePoint" />
            <mxPoint x="440" y="380" as="targetPoint" />
          </mxGeometry>
        </mxCell>
        <mxCell id="-4jPANf81GSxFtbV3iYV-15" value="XML files" style="shape=cube;whiteSpace=wrap;html=1;boundedLbl=1;backgroundOutline=1;darkOpacity=0.05;darkOpacity2=0.1;" vertex="1" parent="1">
          <mxGeometry x="80" y="620" width="120" height="40" as="geometry" />
        </mxCell>
        <mxCell id="-4jPANf81GSxFtbV3iYV-25" value="" style="endArrow=classic;html=1;entryX=0.1;entryY=0.625;entryDx=0;entryDy=0;entryPerimeter=0;" edge="1" parent="1" target="-4jPANf81GSxFtbV3iYV-1">
          <mxGeometry relative="1" as="geometry">
            <mxPoint x="200" y="650" as="sourcePoint" />
            <mxPoint x="250" y="590" as="targetPoint" />
          </mxGeometry>
        </mxCell>
        <mxCell id="-4jPANf81GSxFtbV3iYV-26" value="Convert to" style="edgeLabel;resizable=0;html=1;align=center;verticalAlign=middle;" connectable="0" vertex="1" parent="-4jPANf81GSxFtbV3iYV-25">
          <mxGeometry relative="1" as="geometry" />
        </mxCell>
        <mxCell id="-4jPANf81GSxFtbV3iYV-28" value="View" style="rounded=0;whiteSpace=wrap;html=1;" vertex="1" parent="1">
          <mxGeometry x="275" y="160" width="170" height="60" as="geometry" />
        </mxCell>
      </root>
    </mxGraphModel>
  </diagram>
</mxfile>
